HIERARCHY
ROOT Hips
{
  OFFSET 5.72205e-005 65.662 3.42586
  CHANNELS 6 Xposition Yposition Zposition Zrotation Xrotation Yrotation
  JOINT Chest
  {
    OFFSET 0 8.7983 -4.7612
    CHANNELS 6 Xposition Yposition Zposition Zrotation Xrotation Yrotation
    JOINT Chest2
    {
      OFFSET 0 8.0291 0.4195
      CHANNELS 6 Xposition Yposition Zposition Zrotation Xrotation Yrotation
      JOINT Chest3
      {
        OFFSET 0 9.9351 -2.2114
        CHANNELS 6 Xposition Yposition Zposition Zrotation Xrotation Yrotation
        JOINT Neck
        {
          OFFSET 0 22.3885 -0.4656
          CHANNELS 6 Xposition Yposition Zposition Zrotation Xrotation Yrotation
          JOINT Head
          {
            OFFSET -0.0001 12.643 3.4389
            CHANNELS 6 Xposition Yposition Zposition Zrotation Xrotation Yrotation
            End Site
            {
              OFFSET 0.0001 17.6655 0.5274
            }
          }
        }
        JOINT LeftCollar
        {
          OFFSET 2.2603 21.606 7.4023
          CHANNELS 6 Xposition Yposition Zposition Zrotation Xrotation Yrotation
          JOINT LeftShoulder
          {
            OFFSET 13.5163 -1.1332 -5.0146
            CHANNELS 6 Xposition Yposition Zposition Zrotation Xrotation Yrotation
            JOINT LeftElbow
            {
              OFFSET -0.0995 -28.05 -0.2431
              CHANNELS 6 Xposition Yposition Zposition Zrotation Xrotation Yrotation
              JOINT LeftWrist
              {
                OFFSET 0.0679 -23.3996 -0.1402
                CHANNELS 6 Xposition Yposition Zposition Zrotation Xrotation Yrotation
                JOINT LeftFinger1
                {
                  OFFSET 0.7932 -9.069 2.5189
                  CHANNELS 6 Xposition Yposition Zposition Zrotation Xrotation Yrotation
                  JOINT LeftFinger11
                  {
                    OFFSET -0.8272 -3.3923 0.5977
                    CHANNELS 6 Xposition Yposition Zposition Zrotation Xrotation Yrotation
                    JOINT LeftFinger12
                    {
                      OFFSET -0.5649 -2.3158 0.4082
                      CHANNELS 6 Xposition Yposition Zposition Zrotation Xrotation Yrotation
                      End Site
                      {
                        OFFSET -0.4919 -1.6479 0.2673
                      }
                    }
                  }
                }
                JOINT LeftFinger2
                {
                  OFFSET 0.9159 -9.2044 0.2193
                  CHANNELS 6 Xposition Yposition Zposition Zrotation Xrotation Yrotation
                  JOINT LeftFinger21
                  {
                    OFFSET 0.0117 -4.1944 -0.0248
                    CHANNELS 6 Xposition Yposition Zposition Zrotation Xrotation Yrotation
                    JOINT LeftFinger22
                    {
                      OFFSET 0.0071 -2.3249 -0.0142
                      CHANNELS 6 Xposition Yposition Zposition Zrotation Xrotation Yrotation
                      End Site
                      {
                        OFFSET -0.1475 -2.0882 0.0028
                      }
                    }
                  }
                }
                JOINT LeftFinger3
                {
                  OFFSET 0.6113 -8.7231 -2.0637
                  CHANNELS 6 Xposition Yposition Zposition Zrotation Xrotation Yrotation
                  JOINT LeftFinger31
                  {
                    OFFSET -0.1927 -3.8059 -0.2383
                    CHANNELS 6 Xposition Yposition Zposition Zrotation Xrotation Yrotation
                    JOINT LeftFinger32
                    {
                      OFFSET -0.1091 -2.1688 -0.1362
                      CHANNELS 6 Xposition Yposition Zposition Zrotation Xrotation Yrotation
                      End Site
                      {
                        OFFSET -0.2358 -1.9176 -0.0906
                      }
                    }
                  }
                }
                JOINT LeftFinger4
                {
                  OFFSET -0.6151 -8.0947 -3.5641
                  CHANNELS 6 Xposition Yposition Zposition Zrotation Xrotation Yrotation
                  JOINT LeftFinger41
                  {
                    OFFSET -0.4882 -2.341 -0.6462
                    CHANNELS 6 Xposition Yposition Zposition Zrotation Xrotation Yrotation
                    JOINT LeftFinger42
                    {
                      OFFSET -0.3575 -1.7167 -0.4742
                      CHANNELS 6 Xposition Yposition Zposition Zrotation Xrotation Yrotation
                      End Site
                      {
                        OFFSET -0.4187 -1.5237 -0.3496
                      }
                    }
                  }
                }
                JOINT LeftFinger0
                {
                  OFFSET -1.42 -1.8761 1.4223
                  CHANNELS 6 Xposition Yposition Zposition Zrotation Xrotation Yrotation
                  JOINT LeftFinger01
                  {
                    OFFSET -1.1471 -3.4929 2.6334
                    CHANNELS 6 Xposition Yposition Zposition Zrotation Xrotation Yrotation
                    JOINT LeftFinger02
                    {
                      OFFSET -0.823 -2.3 1.6571
                      CHANNELS 6 Xposition Yposition Zposition Zrotation Xrotation Yrotation
                      End Site
                      {
                        OFFSET -0.5822 -1.6914 1.1582
                      }
                    }
                  }
                }
              }
            }
          }
        }
        JOINT RightCollar
        {
          OFFSET -2.2603 21.606 7.4023
          CHANNELS 6 Xposition Yposition Zposition Zrotation Xrotation Yrotation
          JOINT RightShoulder
          {
            OFFSET -13.5187 -1.1334 -5.0155
            CHANNELS 6 Xposition Yposition Zposition Zrotation Xrotation Yrotation
            JOINT RightElbow
            {
              OFFSET 0.0994 -28.0499 -0.2431
              CHANNELS 6 Xposition Yposition Zposition Zrotation Xrotation Yrotation
              JOINT RightWrist
              {
                OFFSET -0.0679 -23.3996 -0.1402
                CHANNELS 6 Xposition Yposition Zposition Zrotation Xrotation Yrotation
                JOINT RightFinger1
                {
                  OFFSET -0.7932 -9.0691 2.5189
                  CHANNELS 6 Xposition Yposition Zposition Zrotation Xrotation Yrotation
                  JOINT RightFinger11
                  {
                    OFFSET 0.8272 -3.3923 0.5977
                    CHANNELS 6 Xposition Yposition Zposition Zrotation Xrotation Yrotation
                    JOINT RightFinger12
                    {
                      OFFSET 0.565 -2.3158 0.4082
                      CHANNELS 6 Xposition Yposition Zposition Zrotation Xrotation Yrotation
                      End Site
                      {
                        OFFSET 0.4919 -1.6479 0.2673
                      }
                    }
                  }
                }
                JOINT RightFinger2
                {
                  OFFSET -0.916 -9.2044 0.2193
                  CHANNELS 6 Xposition Yposition Zposition Zrotation Xrotation Yrotation
                  JOINT RightFinger21
                  {
                    OFFSET -0.0117 -4.1944 -0.0248
                    CHANNELS 6 Xposition Yposition Zposition Zrotation Xrotation Yrotation
                    JOINT RightFinger22
                    {
                      OFFSET -0.0071 -2.3249 -0.0142
                      CHANNELS 6 Xposition Yposition Zposition Zrotation Xrotation Yrotation
                      End Site
                      {
                        OFFSET 0.1475 -2.0882 0.0028
                      }
                    }
                  }
                }
                JOINT RightFinger3
                {
                  OFFSET -0.6113 -8.7231 -2.0637
                  CHANNELS 6 Xposition Yposition Zposition Zrotation Xrotation Yrotation
                  JOINT RightFinger31
                  {
                    OFFSET 0.1927 -3.8059 -0.2383
                    CHANNELS 6 Xposition Yposition Zposition Zrotation Xrotation Yrotation
                    JOINT RightFinger32
                    {
                      OFFSET 0.1091 -2.1688 -0.1362
                      CHANNELS 6 Xposition Yposition Zposition Zrotation Xrotation Yrotation
                      End Site
                      {
                        OFFSET 0.2358 -1.9176 -0.0906
                      }
                    }
                  }
                }
                JOINT RightFinger4
                {
                  OFFSET 0.6151 -8.0947 -3.564
                  CHANNELS 6 Xposition Yposition Zposition Zrotation Xrotation Yrotation
                  JOINT RightFinger41
                  {
                    OFFSET 0.4882 -2.341 -0.6462
                    CHANNELS 6 Xposition Yposition Zposition Zrotation Xrotation Yrotation
                    JOINT RightFinger42
                    {
                      OFFSET 0.3574 -1.7166 -0.4742
                      CHANNELS 6 Xposition Yposition Zposition Zrotation Xrotation Yrotation
                      End Site
                      {
                        OFFSET 0.4187 -1.5237 -0.3496
                      }
                    }
                  }
                }
                JOINT RightFinger0
                {
                  OFFSET 1.4199 -1.8761 1.4221
                  CHANNELS 6 Xposition Yposition Zposition Zrotation Xrotation Yrotation
                  JOINT RightFinger01
                  {
                    OFFSET 1.1472 -3.4929 2.6336
                    CHANNELS 6 Xposition Yposition Zposition Zrotation Xrotation Yrotation
                    JOINT RightFinger02
                    {
                      OFFSET 0.8229 -2.3 1.6571
                      CHANNELS 6 Xposition Yposition Zposition Zrotation Xrotation Yrotation
                      End Site
                      {
                        OFFSET 0.5822 -1.6914 1.1582
                      }
                    }
                  }
                }
              }
            }
          }
        }
      }
    }
  }
  JOINT RightHip
  {
    OFFSET -9.412 3.9771 -0.7758
    CHANNELS 6 Xposition Yposition Zposition Zrotation Xrotation Yrotation
    JOINT RightKnee
    {
      OFFSET -0.7531 -40.938 0
      CHANNELS 6 Xposition Yposition Zposition Zrotation Xrotation Yrotation
      JOINT RightAnkle
      {
        OFFSET 0 -40.1986 0
        CHANNELS 6 Xposition Yposition Zposition Zrotation Xrotation Yrotation
        JOINT RightToe
        {
          OFFSET 0 -4.4182 9.239
          CHANNELS 6 Xposition Yposition Zposition Zrotation Xrotation Yrotation
          End Site
          {
            OFFSET 0 0 6.1981
          }
        }
      }
    }
  }
  JOINT LeftHip
  {
    OFFSET 9.4119 3.9773 -0.7758
    CHANNELS 6 Xposition Yposition Zposition Zrotation Xrotation Yrotation
    JOINT LeftKnee
    {
      OFFSET 0.7532 -40.9383 0
      CHANNELS 6 Xposition Yposition Zposition Zrotation Xrotation Yrotation
      JOINT LeftAnkle
      {
        OFFSET 0 -40.1986 0
        CHANNELS 6 Xposition Yposition Zposition Zrotation Xrotation Yrotation
        JOINT LeftToe
        {
          OFFSET 0 -4.4182 9.239
          CHANNELS 6 Xposition Yposition Zposition Zrotation Xrotation Yrotation
          End Site
          {
            OFFSET 0 0 6.1981
          }
        }
      }
    }
  }
}
MOTION
Frames:	4
Frame Time:	0.0333333
-51.6132 96.9609 5.82673 -180 -6.99617 3.22516e-007 0 8.7983 -4.7612 -0.125975 -0.361804 -0.231241 -7.10543e-015 8.0291 0.4195 -0.253414 -0.723095 -0.463286 0 9.9351 -2.2114 -0.253414 -0.723097 -0.463286 7.10543e-015 22.3885 -0.4656 -4.74423e-005 33.724 0.00045436 -0.0001 12.643 3.4389 -7.64315e-007 -77.4286 -1.11004e-006 2.2603 21.606 7.4023 -15.4775 -3.6795 21.6439 13.5163 -1.1332 -5.0146 89.5627 -65.7018 9.75453 -0.0995 -28.05 -0.2431 -54.767 -68.1885 -25.5209 0.0679 -23.3996 -0.1402 -16.0865 -11.568 49.6944 0.7932 -9.069 2.5189 -6.55602e-006 1.28599e-005 -1.34407e-005 -0.8272 -3.3923 0.5977 2.98273e-006 7.08774e-006 3.32939e-006 -0.5649 -2.3158 0.4082 5.97452e-006 -9.24081e-006 -1.10356e-005 0.9159 -9.2044 0.2193 -6.55602e-006 1.28599e-005 -1.34407e-005 0.0117 -4.1944 -0.0248 -0.0127966 0.00232451 7.56443e-005 0.0071 -2.3249 -0.0142 4.33118e-006 -1.093e-005 -5.54842e-006 0.6113 -8.7231 -2.0637 -6.55602e-006 1.28599e-005 -1.34407e-005 -0.1927 -3.8059 -0.2383 -0.0160965 0.00301248 0.000868378 -0.1091 -2.1688 -0.1362 -7.44951e-006 1.03316e-005 -5.91962e-006 -0.6151 -8.0947 -3.5641 -6.55602e-006 1.28599e-005 -1.34407e-005 -0.4882 -2.341 -0.6462 -0.0125631 0.00312164 0.00282041 -0.3575 -1.7167 -0.4742 8.81003e-006 -1.079e-005 -9.40121e-006 -1.42 -1.8761 1.4223 -6.55602e-006 1.28599e-005 -1.34407e-005 -1.1471 -3.4929 2.6334 2.98273e-006 7.08774e-006 3.32939e-006 -0.823 -2.3 1.6571 5.97452e-006 -9.24081e-006 -1.10356e-005 -2.2603 21.606 7.4023 13.6581 -6.6414 -26.0121 -13.5187 -1.1334 -5.0155 -81.5664 -75.7859 3.71679 0.0994 -28.0499 -0.2431 43.4247 -68.8547 14.7519 -0.0679 -23.3996 -0.1402 21.3033 -13.9401 -47.4476 -0.7932 -9.0691 2.5189 -1.28028e-007 5.97013e-006 6.73097e-006 0.8272 -3.3923 0.5977 4.75556e-006 4.67004e-006 -1.76478e-006 0.565 -2.3158 0.4082 -1.41707e-005 -2.41675e-005 2.46095e-007 -0.916 -9.2044 0.2193 -1.28028e-007 5.97013e-006 6.73097e-006 -0.0117 -4.1944 -0.0248 0.0129343 0.00229653 -7.61659e-005 -0.0071 -2.3249 -0.0142 4.78761e-006 2.28675e-005 -3.44733e-006 -0.6113 -8.7231 -2.0637 -1.28028e-007 5.97013e-006 6.73097e-006 0.1927 -3.8059 -0.2383 0.016328 0.0030284 -0.000881206 0.1091 -2.1688 -0.1362 -3.18055e-015 0 -0 0.6151 -8.0947 -3.564 -1.28028e-007 5.97013e-006 6.73097e-006 0.4882 -2.341 -0.6462 0.0145644 0.00365735 -0.00324986 0.3574 -1.7166 -0.4742 1.79532e-006 5.92352e-006 2.91673e-006 1.4199 -1.8761 1.4221 -1.28028e-007 5.97013e-006 6.73097e-006 1.1472 -3.4929 2.6336 4.75556e-006 4.67004e-006 -1.76478e-006 0.8229 -2.3 1.6571 -1.41707e-005 -2.41675e-005 2.46095e-007 -9.412 3.9771 -0.7758 -41.3229 -49.5596 -44.4905 -0.7531 -40.938 0 118.628 38.0271 -109.23 7.10543e-015 -40.1986 -1.42109e-014 -28.5373 8.64491 33.0625 0 -4.4182 9.239 2.98374e-006 6.81279e-007 4.16342e-006 9.4119 3.9773 -0.7758 22.3132 -47.1043 24.2957 0.7532 -40.9383 0 -115.047 36.5802 112.839 1.42109e-014 -40.1986 0 30.8508 4.63532 -34.0381 1.42109e-014 -4.4182 9.23901 -1.22313e-006 -8.53447e-007 1.19141e-006 
-51.6131 96.9606 5.82706 180 -6.99617 -1.87346e-007 -7.10543e-015 8.7983 -4.7612 -0.125475 -0.510696 -0.23188 0 8.0291 0.4195 -0.25303 -1.02087 -0.464904 0 9.9351 -2.2114 -0.253027 -1.02086 -0.464899 0 22.3885 -0.4656 -8.69056e-007 33.3752 7.2722e-006 -0.0001 12.643 3.4389 -6.27019e-007 -75.4173 -6.97819e-007 2.2603 21.606 7.4023 -15.6412 -3.13261 20.3805 13.5163 -1.1332 -5.0146 89.3198 -65.44 9.17789 -0.0995 -28.05 -0.2431 -52.1373 -67.5511 -22.9848 0.0679 -23.3996 -0.1402 -16.3503 -11.5889 49.6216 0.7932 -9.069 2.5189 -6.85157e-006 5.97872e-006 8.32973e-007 -0.8272 -3.3923 0.5977 9.54166e-015 1.59028e-015 7.95139e-016 -0.5649 -2.3158 0.4082 -7.32957e-006 4.30153e-006 2.18778e-006 0.915899 -9.2044 0.2193 -6.85157e-006 5.97872e-006 8.32973e-007 0.0117 -4.1944 -0.0248 -0.0127776 0.00231166 8.35139e-005 0.0071 -2.3249 -0.0142 -2.69619e-006 -6.10388e-006 5.00171e-008 0.6113 -8.7231 -2.0637 -6.85157e-006 5.97872e-006 8.32973e-007 -0.1927 -3.8059 -0.2383 -0.015989 0.00297809 0.000867202 -0.1091 -2.1688 -0.1362 -9.82636e-006 1.09255e-005 -2.50966e-006 -0.6151 -8.0947 -3.5641 -6.85157e-006 5.97872e-006 8.32973e-007 -0.4882 -2.341 -0.6462 -0.0125419 0.00310704 0.0028164 -0.3575 -1.7167 -0.4742 1.39678e-007 -2.14325e-006 1.69612e-006 -1.42 -1.8761 1.4223 -6.85157e-006 5.97872e-006 8.32973e-007 -1.1471 -3.4929 2.6334 9.54166e-015 1.59028e-015 7.95139e-016 -0.823 -2.3 1.6571 -7.32957e-006 4.30153e-006 2.18778e-006 -2.2603 21.606 7.4023 13.9491 -5.95591 -24.7792 -13.5187 -1.1334 -5.0155 -81.5218 -74.4271 4.24147 0.0994 -28.0499 -0.2431 42.3589 -68.4353 13.739 -0.0679 -23.3996 -0.1402 21.5849 -14.0561 -47.3126 -0.7932 -9.0691 2.5189 6.36111e-015 1.59028e-015 1.59028e-015 0.8272 -3.3923 0.5977 7.84219e-006 -9.97346e-006 -9.77735e-006 0.565 -2.3158 0.4082 9.45072e-006 8.01297e-006 -8.42489e-008 -0.916 -9.2044 0.2193 6.36111e-015 1.59028e-015 1.59028e-015 -0.0117 -4.1944 -0.0248 0.0129796 0.00230466 -0.000100071 -0.0071 -2.3249 -0.0142 -8.64972e-008 4.0596e-006 3.36928e-006 -0.6113 -8.7231 -2.0637 6.36111e-015 1.59028e-015 1.59028e-015 0.1927 -3.8059 -0.2383 0.0163882 0.00303194 -0.000882004 0.1091 -2.1688 -0.1362 -3.68961e-006 -1.86057e-005 -8.55467e-007 0.6151 -8.0947 -3.564 6.36111e-015 1.59028e-015 1.59028e-015 0.4882 -2.341 -0.6462 0.0146224 0.00367321 -0.00327728 0.3574 -1.7166 -0.4742 2.81527e-006 3.3495e-006 2.05734e-006 1.4199 -1.8761 1.4221 6.36111e-015 1.59028e-015 1.59028e-015 1.1472 -3.4929 2.6336 7.84219e-006 -9.97346e-006 -9.77735e-006 0.8229 -2.3 1.6571 9.45072e-006 8.01297e-006 -8.42489e-008 -9.412 3.9771 -0.7758 -41.3212 -49.7252 -44.4007 -0.7531 -40.938 0 118.624 38.0278 -109.229 0 -40.1986 1.42109e-014 -28.3566 8.68328 32.9594 1.42109e-014 -4.4182 9.239 1.47101e-014 3.18055e-015 6.36111e-015 9.4119 3.9773 -0.7758 22.1182 -47.5065 23.8589 0.7532 -40.9383 -1.42109e-014 -115.044 36.5812 112.839 1.42109e-014 -40.1986 0 30.3957 4.80443 -33.8069 1.42109e-014 -4.4182 9.239 -8.11162e-007 -4.99885e-006 4.09091e-006 
-51.6129 96.9604 5.82735 -180 -6.99616 2.15145e-008 7.10543e-015 8.7983 -4.7612 -0.125075 -0.643922 -0.232533 0 8.0291 0.4195 -0.252788 -1.28737 -0.46652 -7.10543e-015 9.9351 -2.2114 -0.252788 -1.28737 -0.46652 -7.10543e-015 22.3885 -0.4656 -1.66399e-005 33.0645 0.000168301 -0.0001 12.643 3.4389 1.59011e-006 -73.6111 1.65082e-006 2.2603 21.606 7.4023 -15.7782 -2.64046 19.2516 13.5163 -1.1332 -5.0146 89.112 -65.2052 8.67147 -0.0995 -28.05 -0.2431 -49.9214 -66.9399 -20.8527 0.0679 -23.3996 -0.1402 -16.5861 -11.6073 49.5564 0.7932 -9.069 2.5189 -1.27222e-014 -1.59028e-015 -7.95139e-016 -0.8272 -3.3923 0.597701 -3.89264e-006 8.85853e-006 -1.52316e-005 -0.5649 -2.3158 0.4082 -2.64342e-007 5.42907e-006 -3.3933e-006 0.9159 -9.20439 0.2193 -1.27222e-014 -1.59028e-015 -7.95139e-016 0.0117 -4.1944 -0.0248 -0.0128142 0.00231713 7.15904e-005 0.0071 -2.3249 -0.0142 3.96215e-007 -6.63432e-007 5.08997e-006 0.6113 -8.72309 -2.0637 -1.27222e-014 -1.59028e-015 -7.95139e-016 -0.1927 -3.8059 -0.2383 -0.01603 0.00299601 0.000842747 -0.1091 -2.1688 -0.1362 2.64088e-007 -1.14681e-005 3.39332e-006 -0.6151 -8.0947 -3.5641 -1.27222e-014 -1.59028e-015 -7.95139e-016 -0.4882 -2.341 -0.646201 -0.0125894 0.00311563 0.00281393 -0.3575 -1.7167 -0.4742 -3.18055e-015 7.95139e-016 -7.95139e-016 -1.42 -1.8761 1.4223 -1.27222e-014 -1.59028e-015 -7.95139e-016 -1.1471 -3.4929 2.6334 -3.89264e-006 8.85853e-006 -1.52316e-005 -0.823 -2.3 1.6571 -2.64342e-007 5.42907e-006 -3.3933e-006 -2.2603 21.606 7.4023 14.1982 -5.33727 -23.6787 -13.5187 -1.1334 -5.0155 -81.4395 -73.2162 4.75332 0.0994 -28.0499 -0.2431 41.4406 -68.0543 12.8678 -0.0679 -23.3996 -0.1402 21.8369 -14.1592 -47.1914 -0.7932 -9.0691 2.5189 9.54166e-015 -7.95139e-016 1.59028e-015 0.8272 -3.3923 0.597701 9.54166e-015 -2.38542e-015 -1.59028e-015 0.565 -2.3158 0.4082 9.54166e-015 -7.95139e-016 -2.38542e-015 -0.916 -9.2044 0.2193 9.54166e-015 -7.95139e-016 1.59028e-015 -0.0117 -4.1944 -0.0248 0.0129652 0.00231867 -9.82949e-005 -0.0071 -2.3249 -0.0142 9.54166e-015 2.3059e-014 1.27222e-014 -0.6113 -8.7231 -2.0637 9.54166e-015 -7.95139e-016 1.59028e-015 0.1927 -3.8059 -0.2383 0.0163703 0.00304065 -0.000890272 0.1091 -2.1688 -0.1362 0 0 -2.38542e-015 0.6151 -8.0947 -3.564 9.54166e-015 -7.95139e-016 1.59028e-015 0.4882 -2.341 -0.646201 0.014611 0.00367599 -0.00327391 0.3574 -1.7166 -0.4742 -6.36111e-015 1.59028e-015 -7.95139e-016 1.4199 -1.8761 1.4221 9.54166e-015 -7.95139e-016 1.59028e-015 1.1472 -3.4929 2.6336 9.54166e-015 -2.38542e-015 -1.59028e-015 0.8229 -2.3 1.6571 9.54166e-015 -7.95139e-016 -2.38542e-015 -9.412 3.9771 -0.7758 -41.3327 -49.866 -44.3305 -0.7531 -40.938 -2.84217e-014 118.632 38.028 -109.229 0 -40.1986 1.42109e-014 -28.1952 8.71729 32.8673 1.42109e-014 -4.4182 9.239 -4.71292e-006 -6.87172e-006 2.55594e-006 9.4119 3.9773 -0.7758 21.9383 -47.8656 23.4636 0.7532 -40.9383 1.42109e-014 -115.04 36.5821 112.839 0 -40.1986 1.42109e-014 29.9885 4.95377 -33.5989 0 -4.4182 9.239 6.32872e-006 -5.80569e-006 4.01557e-006 
-51.6128 96.9602 5.82764 -180 -6.99617 1.55047e-007 -7.10543e-015 8.7983 -4.7612 -0.124655 -0.77717 -0.233148 0 8.0291 0.4195 -0.252505 -1.55382 -0.468049 -7.10543e-015 9.9351 -2.2114 -0.252505 -1.55382 -0.468048 0 22.3885 -0.4656 -9.34756e-006 32.7533 9.7175e-005 -0.0001 12.643 3.4389 -1.12745e-006 -71.7972 -9.8382e-007 2.2603 21.606 7.4023 -15.9057 -2.14518 18.1218 13.5163 -1.1332 -5.0146 88.9108 -64.9696 8.17147 -0.0995 -28.05 -0.2431 -47.8152 -66.2974 -18.8308 0.0679 -23.3996 -0.1402 -16.8218 -11.6254 49.4911 0.793199 -9.069 2.5189 5.23431e-007 8.25738e-006 -1.3469e-006 -0.8272 -3.3923 0.5977 -5.2343e-007 -8.25738e-006 1.3469e-006 -0.5649 -2.3158 0.4082 5.23431e-007 8.25738e-006 -1.3469e-006 0.915899 -9.2044 0.2193 5.23431e-007 8.25738e-006 -1.3469e-006 0.0117 -4.1944 -0.0248 -0.0128017 0.00231669 8.72957e-005 0.0071 -2.3249 -0.0142 -1.24036e-007 -3.78417e-006 -1.69716e-006 0.6113 -8.7231 -2.0637 5.23431e-007 8.25738e-006 -1.3469e-006 -0.1927 -3.8059 -0.2383 -0.0160431 0.00299116 0.000856938 -0.1091 -2.1688 -0.1362 4.27698e-006 -9.33661e-006 -7.189e-006 -0.6151 -8.0947 -3.5641 5.23431e-007 8.25738e-006 -1.3469e-006 -0.4882 -2.341 -0.6462 -0.012563 0.00311953 0.00281366 -0.3575 -1.7167 -0.4742 9.67011e-006 -7.2561e-006 8.96504e-007 -1.42 -1.8761 1.4223 5.23431e-007 8.25738e-006 -1.3469e-006 -1.1471 -3.4929 2.6334 -5.2343e-007 -8.25738e-006 1.3469e-006 -0.823 -2.3 1.6571 5.23431e-007 8.25738e-006 -1.3469e-006 -2.2603 21.606 7.4023 14.4355 -4.71325 -22.5799 -13.5187 -1.1334 -5.0155 -81.4184 -72.0039 5.2055 0.0994 -28.0499 -0.2431 40.5525 -67.6684 12.0271 -0.0679 -23.3996 -0.1402 22.0892 -14.2617 -47.0698 -0.7932 -9.0691 2.5189 -3.04495e-006 -4.2457e-007 4.67691e-006 0.8272 -3.3923 0.5977 9.45428e-006 7.98651e-006 6.80139e-008 0.565 -2.3158 0.4082 -1.15916e-005 -1.68717e-005 7.03355e-006 -0.916 -9.2044 0.2193 -3.04495e-006 -4.2457e-007 4.67691e-006 -0.0117 -4.1944 -0.0248 0.0130109 0.00232892 -8.39699e-005 -0.0071 -2.3249 -0.0142 -1.95435e-007 8.76919e-006 5.06249e-006 -0.6113 -8.7231 -2.0637 -3.04495e-006 -4.2457e-007 4.67691e-006 0.1927 -3.8059 -0.2383 0.0163331 0.00303344 -0.000876518 0.1091 -2.1688 -0.1362 6.08187e-006 1.68629e-005 1.31828e-005 0.6151 -8.0947 -3.564 -3.04495e-006 -4.2457e-007 4.67691e-006 0.4882 -2.341 -0.6462 0.0145805 0.00367875 -0.00326691 0.3574 -1.7166 -0.4742 -4.92246e-006 -1.11343e-005 5.02816e-006 1.4199 -1.8761 1.4221 -3.04495e-006 -4.2457e-007 4.67691e-006 1.1472 -3.4929 2.6336 9.45428e-006 7.98651e-006 6.80139e-008 0.8229 -2.3 1.6571 -1.15916e-005 -1.68717e-005 7.03355e-006 -9.412 3.9771 -0.7758 -41.3172 -50.0209 -44.2396 -0.7531 -40.938 0 118.616 38.0291 -109.227 1.42109e-014 -40.1986 0 -28.0337 8.75101 32.775 7.10543e-015 -4.4182 9.239 -4.55021e-007 3.70614e-007 -3.56739e-006 9.4119 3.9773 -0.7758 21.7536 -48.2237 23.0639 0.7532 -40.9383 1.42109e-014 -115.037 36.5829 112.839 -1.42109e-014 -40.1986 0 29.5805 5.10176 -33.3898 1.42109e-014 -4.4182 9.239 8.77373e-006 -1.6759e-006 1.62841e-006 
